<?xml version="1.0" encoding="UTF-8" standalone="no"?><svg xmlns="http://www.w3.org/2000/svg" xmlns:xlink="http://www.w3.org/1999/xlink" contentStyleType="text/css" height="386px" preserveAspectRatio="none" style="width:430px;height:386px;background:#FFFFFF;" version="1.1" viewBox="0 0 430 386" width="430px" zoomAndPan="magnify"><defs/><g><!--MD5=[335f4d9be48430461c68bf6d6fdba145]
class App--><g id="elem_App"><rect codeLine="1" fill="#F1F1F1" height="48" id="App" rx="2.5" ry="2.5" style="stroke:#181818;stroke-width:0.5;" width="57" x="172" y="7"/><ellipse cx="187" cy="23" fill="#ADD1B2" rx="11" ry="11" style="stroke:#181818;stroke-width:1.0;"/><path d="M189.7656,18.875 Q189.9219,18.6563 190.1094,18.5469 Q190.2969,18.4375 190.5156,18.4375 Q190.8906,18.4375 191.125,18.7031 Q191.3594,18.9531 191.3594,19.5625 L191.3594,21.0156 Q191.3594,21.625 191.125,21.8906 Q190.8906,22.1563 190.5156,22.1563 Q190.1719,22.1563 189.9688,21.9531 Q189.7656,21.7656 189.6563,21.25 Q189.6094,20.8906 189.4219,20.7031 Q189.0938,20.3281 188.4844,20.1094 Q187.875,19.8906 187.25,19.8906 Q186.4844,19.8906 185.8438,20.2188 Q185.2188,20.5469 184.7188,21.2969 Q184.2344,22.0469 184.2344,23.0781 L184.2344,24.1719 Q184.2344,25.4063 185.125,26.2344 Q186.0156,27.0469 187.6094,27.0469 Q188.5469,27.0469 189.2031,26.7969 Q189.5938,26.6406 190.0156,26.2031 Q190.2813,25.9375 190.4219,25.8594 Q190.5781,25.7813 190.7813,25.7813 Q191.1094,25.7813 191.3594,26.0469 Q191.625,26.2969 191.625,26.6406 Q191.625,26.9844 191.2813,27.3906 Q190.7813,27.9688 189.9844,28.2969 Q188.9063,28.75 187.6094,28.75 Q186.0938,28.75 184.8906,28.125 Q183.9063,27.625 183.2188,26.5625 Q182.5313,25.4844 182.5313,24.2031 L182.5313,23.0469 Q182.5313,21.7188 183.1406,20.5781 Q183.7656,19.4219 184.8594,18.8125 Q185.9531,18.1875 187.1875,18.1875 Q187.9219,18.1875 188.5625,18.3594 Q189.2188,18.5156 189.7656,18.875 Z " fill="#000000"/><text fill="#000000" font-family="sans-serif" font-size="14" lengthAdjust="spacing" textLength="25" x="201" y="28.7285">App</text><line style="stroke:#181818;stroke-width:0.5;" x1="173" x2="228" y1="39" y2="39"/><line style="stroke:#181818;stroke-width:0.5;" x1="173" x2="228" y1="47" y2="47"/></g><!--MD5=[0879a4632029cf6427295a9ce0d38dc7]
class XmlService--><g id="elem_XmlService"><rect codeLine="2" fill="#F1F1F1" height="48" id="XmlService" rx="2.5" ry="2.5" style="stroke:#181818;stroke-width:0.5;" width="101" x="24" y="115"/><ellipse cx="39" cy="131" fill="#B4A7E5" rx="11" ry="11" style="stroke:#181818;stroke-width:1.0;"/><path d="M39.9531,127.6406 L39.9531,134.2969 L41.6719,134.2969 Q42.2813,134.2969 42.5469,134.5313 Q42.8125,134.7656 42.8125,135.1563 Q42.8125,135.5313 42.5469,135.7656 Q42.2813,136 41.6719,136 L36.5313,136 Q35.9219,136 35.6563,135.7656 Q35.3906,135.5313 35.3906,135.1406 Q35.3906,134.7656 35.6563,134.5313 Q35.9219,134.2969 36.5313,134.2969 L38.25,134.2969 L38.25,127.6406 L36.5313,127.6406 Q35.9219,127.6406 35.6563,127.4063 Q35.3906,127.1719 35.3906,126.7813 Q35.3906,126.4063 35.6563,126.1719 Q35.9219,125.9375 36.5313,125.9375 L41.6719,125.9375 Q42.2813,125.9375 42.5469,126.1719 Q42.8125,126.4063 42.8125,126.7813 Q42.8125,127.1719 42.5469,127.4063 Q42.2813,127.6406 41.6719,127.6406 L39.9531,127.6406 Z " fill="#000000"/><text fill="#000000" font-family="sans-serif" font-size="14" font-style="italic" lengthAdjust="spacing" textLength="69" x="53" y="136.7285">XmlService</text><line style="stroke:#181818;stroke-width:0.5;" x1="25" x2="124" y1="147" y2="147"/><line style="stroke:#181818;stroke-width:0.5;" x1="25" x2="124" y1="155" y2="155"/></g><!--MD5=[3103f3d3160944adae456d9e0b388c1f]
class LocalXmlService--><g id="elem_LocalXmlService"><rect codeLine="3" fill="#F1F1F1" height="48" id="LocalXmlService" rx="2.5" ry="2.5" style="stroke:#181818;stroke-width:0.5;" width="135" x="7" y="223"/><ellipse cx="22" cy="239" fill="#ADD1B2" rx="11" ry="11" style="stroke:#181818;stroke-width:1.0;"/><path d="M24.7656,234.875 Q24.9219,234.6563 25.1094,234.5469 Q25.2969,234.4375 25.5156,234.4375 Q25.8906,234.4375 26.125,234.7031 Q26.3594,234.9531 26.3594,235.5625 L26.3594,237.0156 Q26.3594,237.625 26.125,237.8906 Q25.8906,238.1563 25.5156,238.1563 Q25.1719,238.1563 24.9688,237.9531 Q24.7656,237.7656 24.6563,237.25 Q24.6094,236.8906 24.4219,236.7031 Q24.0938,236.3281 23.4844,236.1094 Q22.875,235.8906 22.25,235.8906 Q21.4844,235.8906 20.8438,236.2188 Q20.2188,236.5469 19.7188,237.2969 Q19.2344,238.0469 19.2344,239.0781 L19.2344,240.1719 Q19.2344,241.4063 20.125,242.2344 Q21.0156,243.0469 22.6094,243.0469 Q23.5469,243.0469 24.2031,242.7969 Q24.5938,242.6406 25.0156,242.2031 Q25.2813,241.9375 25.4219,241.8594 Q25.5781,241.7813 25.7813,241.7813 Q26.1094,241.7813 26.3594,242.0469 Q26.625,242.2969 26.625,242.6406 Q26.625,242.9844 26.2813,243.3906 Q25.7813,243.9688 24.9844,244.2969 Q23.9063,244.75 22.6094,244.75 Q21.0938,244.75 19.8906,244.125 Q18.9063,243.625 18.2188,242.5625 Q17.5313,241.4844 17.5313,240.2031 L17.5313,239.0469 Q17.5313,237.7188 18.1406,236.5781 Q18.7656,235.4219 19.8594,234.8125 Q20.9531,234.1875 22.1875,234.1875 Q22.9219,234.1875 23.5625,234.3594 Q24.2188,234.5156 24.7656,234.875 Z " fill="#000000"/><text fill="#000000" font-family="sans-serif" font-size="14" lengthAdjust="spacing" textLength="103" x="36" y="244.7285">LocalXmlService</text><line style="stroke:#181818;stroke-width:0.5;" x1="8" x2="141" y1="255" y2="255"/><line style="stroke:#181818;stroke-width:0.5;" x1="8" x2="141" y1="263" y2="263"/></g><!--MD5=[085457430d2356209d15d1291460c965]
class Mapper--><g id="elem_Mapper"><rect codeLine="4" fill="#F1F1F1" height="48" id="Mapper" rx="2.5" ry="2.5" style="stroke:#181818;stroke-width:0.5;" width="80" x="160.5" y="115"/><ellipse cx="175.5" cy="131" fill="#ADD1B2" rx="11" ry="11" style="stroke:#181818;stroke-width:1.0;"/><path d="M178.2656,126.875 Q178.4219,126.6563 178.6094,126.5469 Q178.7969,126.4375 179.0156,126.4375 Q179.3906,126.4375 179.625,126.7031 Q179.8594,126.9531 179.8594,127.5625 L179.8594,129.0156 Q179.8594,129.625 179.625,129.8906 Q179.3906,130.1563 179.0156,130.1563 Q178.6719,130.1563 178.4688,129.9531 Q178.2656,129.7656 178.1563,129.25 Q178.1094,128.8906 177.9219,128.7031 Q177.5938,128.3281 176.9844,128.1094 Q176.375,127.8906 175.75,127.8906 Q174.9844,127.8906 174.3438,128.2188 Q173.7188,128.5469 173.2188,129.2969 Q172.7344,130.0469 172.7344,131.0781 L172.7344,132.1719 Q172.7344,133.4063 173.625,134.2344 Q174.5156,135.0469 176.1094,135.0469 Q177.0469,135.0469 177.7031,134.7969 Q178.0938,134.6406 178.5156,134.2031 Q178.7813,133.9375 178.9219,133.8594 Q179.0781,133.7813 179.2813,133.7813 Q179.6094,133.7813 179.8594,134.0469 Q180.125,134.2969 180.125,134.6406 Q180.125,134.9844 179.7813,135.3906 Q179.2813,135.9688 178.4844,136.2969 Q177.4063,136.75 176.1094,136.75 Q174.5938,136.75 173.3906,136.125 Q172.4063,135.625 171.7188,134.5625 Q171.0313,133.4844 171.0313,132.2031 L171.0313,131.0469 Q171.0313,129.7188 171.6406,128.5781 Q172.2656,127.4219 173.3594,126.8125 Q174.4531,126.1875 175.6875,126.1875 Q176.4219,126.1875 177.0625,126.3594 Q177.7188,126.5156 178.2656,126.875 Z " fill="#000000"/><text fill="#000000" font-family="sans-serif" font-size="14" lengthAdjust="spacing" textLength="48" x="189.5" y="136.7285">Mapper</text><line style="stroke:#181818;stroke-width:0.5;" x1="161.5" x2="239.5" y1="147" y2="147"/><line style="stroke:#181818;stroke-width:0.5;" x1="161.5" x2="239.5" y1="155" y2="155"/></g><!--MD5=[59b530d44ae785dc18db921986a9c15c]
class Document--><g id="elem_Document"><rect codeLine="5" fill="#F1F1F1" height="48" id="Document" rx="2.5" ry="2.5" style="stroke:#181818;stroke-width:0.5;" width="96" x="275.5" y="115"/><ellipse cx="290.5" cy="131" fill="#ADD1B2" rx="11" ry="11" style="stroke:#181818;stroke-width:1.0;"/><path d="M293.2656,126.875 Q293.4219,126.6563 293.6094,126.5469 Q293.7969,126.4375 294.0156,126.4375 Q294.3906,126.4375 294.625,126.7031 Q294.8594,126.9531 294.8594,127.5625 L294.8594,129.0156 Q294.8594,129.625 294.625,129.8906 Q294.3906,130.1563 294.0156,130.1563 Q293.6719,130.1563 293.4688,129.9531 Q293.2656,129.7656 293.1563,129.25 Q293.1094,128.8906 292.9219,128.7031 Q292.5938,128.3281 291.9844,128.1094 Q291.375,127.8906 290.75,127.8906 Q289.9844,127.8906 289.3438,128.2188 Q288.7188,128.5469 288.2188,129.2969 Q287.7344,130.0469 287.7344,131.0781 L287.7344,132.1719 Q287.7344,133.4063 288.625,134.2344 Q289.5156,135.0469 291.1094,135.0469 Q292.0469,135.0469 292.7031,134.7969 Q293.0938,134.6406 293.5156,134.2031 Q293.7813,133.9375 293.9219,133.8594 Q294.0781,133.7813 294.2813,133.7813 Q294.6094,133.7813 294.8594,134.0469 Q295.125,134.2969 295.125,134.6406 Q295.125,134.9844 294.7813,135.3906 Q294.2813,135.9688 293.4844,136.2969 Q292.4063,136.75 291.1094,136.75 Q289.5938,136.75 288.3906,136.125 Q287.4063,135.625 286.7188,134.5625 Q286.0313,133.4844 286.0313,132.2031 L286.0313,131.0469 Q286.0313,129.7188 286.6406,128.5781 Q287.2656,127.4219 288.3594,126.8125 Q289.4531,126.1875 290.6875,126.1875 Q291.4219,126.1875 292.0625,126.3594 Q292.7188,126.5156 293.2656,126.875 Z " fill="#000000"/><text fill="#000000" font-family="sans-serif" font-size="14" lengthAdjust="spacing" textLength="64" x="304.5" y="136.7285">Document</text><line style="stroke:#181818;stroke-width:0.5;" x1="276.5" x2="370.5" y1="147" y2="147"/><line style="stroke:#181818;stroke-width:0.5;" x1="276.5" x2="370.5" y1="155" y2="155"/></g><!--MD5=[d10018d7374cb536a2ec2f77e731452b]
class Header--><g id="elem_Header"><rect codeLine="6" fill="#F1F1F1" height="48" id="Header" rx="2.5" ry="2.5" style="stroke:#181818;stroke-width:0.5;" width="78" x="230.5" y="223"/><ellipse cx="245.5" cy="239" fill="#ADD1B2" rx="11" ry="11" style="stroke:#181818;stroke-width:1.0;"/><path d="M248.2656,234.875 Q248.4219,234.6563 248.6094,234.5469 Q248.7969,234.4375 249.0156,234.4375 Q249.3906,234.4375 249.625,234.7031 Q249.8594,234.9531 249.8594,235.5625 L249.8594,237.0156 Q249.8594,237.625 249.625,237.8906 Q249.3906,238.1563 249.0156,238.1563 Q248.6719,238.1563 248.4688,237.9531 Q248.2656,237.7656 248.1563,237.25 Q248.1094,236.8906 247.9219,236.7031 Q247.5938,236.3281 246.9844,236.1094 Q246.375,235.8906 245.75,235.8906 Q244.9844,235.8906 244.3438,236.2188 Q243.7188,236.5469 243.2188,237.2969 Q242.7344,238.0469 242.7344,239.0781 L242.7344,240.1719 Q242.7344,241.4063 243.625,242.2344 Q244.5156,243.0469 246.1094,243.0469 Q247.0469,243.0469 247.7031,242.7969 Q248.0938,242.6406 248.5156,242.2031 Q248.7813,241.9375 248.9219,241.8594 Q249.0781,241.7813 249.2813,241.7813 Q249.6094,241.7813 249.8594,242.0469 Q250.125,242.2969 250.125,242.6406 Q250.125,242.9844 249.7813,243.3906 Q249.2813,243.9688 248.4844,244.2969 Q247.4063,244.75 246.1094,244.75 Q244.5938,244.75 243.3906,244.125 Q242.4063,243.625 241.7188,242.5625 Q241.0313,241.4844 241.0313,240.2031 L241.0313,239.0469 Q241.0313,237.7188 241.6406,236.5781 Q242.2656,235.4219 243.3594,234.8125 Q244.4531,234.1875 245.6875,234.1875 Q246.4219,234.1875 247.0625,234.3594 Q247.7188,234.5156 248.2656,234.875 Z " fill="#000000"/><text fill="#000000" font-family="sans-serif" font-size="14" lengthAdjust="spacing" textLength="46" x="259.5" y="244.7285">Header</text><line style="stroke:#181818;stroke-width:0.5;" x1="231.5" x2="307.5" y1="255" y2="255"/><line style="stroke:#181818;stroke-width:0.5;" x1="231.5" x2="307.5" y1="263" y2="263"/></g><!--MD5=[09a53695e98d4f26e7a054522080af08]
class Section--><g id="elem_Section"><rect codeLine="7" fill="#F1F1F1" height="48" id="Section" rx="2.5" ry="2.5" style="stroke:#181818;stroke-width:0.5;" width="79" x="344" y="223"/><ellipse cx="359" cy="239" fill="#ADD1B2" rx="11" ry="11" style="stroke:#181818;stroke-width:1.0;"/><path d="M361.7656,234.875 Q361.9219,234.6563 362.1094,234.5469 Q362.2969,234.4375 362.5156,234.4375 Q362.8906,234.4375 363.125,234.7031 Q363.3594,234.9531 363.3594,235.5625 L363.3594,237.0156 Q363.3594,237.625 363.125,237.8906 Q362.8906,238.1563 362.5156,238.1563 Q362.1719,238.1563 361.9688,237.9531 Q361.7656,237.7656 361.6563,237.25 Q361.6094,236.8906 361.4219,236.7031 Q361.0938,236.3281 360.4844,236.1094 Q359.875,235.8906 359.25,235.8906 Q358.4844,235.8906 357.8438,236.2188 Q357.2188,236.5469 356.7188,237.2969 Q356.2344,238.0469 356.2344,239.0781 L356.2344,240.1719 Q356.2344,241.4063 357.125,242.2344 Q358.0156,243.0469 359.6094,243.0469 Q360.5469,243.0469 361.2031,242.7969 Q361.5938,242.6406 362.0156,242.2031 Q362.2813,241.9375 362.4219,241.8594 Q362.5781,241.7813 362.7813,241.7813 Q363.1094,241.7813 363.3594,242.0469 Q363.625,242.2969 363.625,242.6406 Q363.625,242.9844 363.2813,243.3906 Q362.7813,243.9688 361.9844,244.2969 Q360.9063,244.75 359.6094,244.75 Q358.0938,244.75 356.8906,244.125 Q355.9063,243.625 355.2188,242.5625 Q354.5313,241.4844 354.5313,240.2031 L354.5313,239.0469 Q354.5313,237.7188 355.1406,236.5781 Q355.7656,235.4219 356.8594,234.8125 Q357.9531,234.1875 359.1875,234.1875 Q359.9219,234.1875 360.5625,234.3594 Q361.2188,234.5156 361.7656,234.875 Z " fill="#000000"/><text fill="#000000" font-family="sans-serif" font-size="14" lengthAdjust="spacing" textLength="47" x="373" y="244.7285">Section</text><line style="stroke:#181818;stroke-width:0.5;" x1="345" x2="422" y1="255" y2="255"/><line style="stroke:#181818;stroke-width:0.5;" x1="345" x2="422" y1="263" y2="263"/></g><!--MD5=[736dfa021baaf4f381c9890dd397bfe9]
class Line--><g id="elem_Line"><rect codeLine="8" fill="#F1F1F1" height="48" id="Line" rx="2.5" ry="2.5" style="stroke:#181818;stroke-width:0.5;" width="59" x="297" y="331"/><ellipse cx="312" cy="347" fill="#ADD1B2" rx="11" ry="11" style="stroke:#181818;stroke-width:1.0;"/><path d="M314.7656,342.875 Q314.9219,342.6563 315.1094,342.5469 Q315.2969,342.4375 315.5156,342.4375 Q315.8906,342.4375 316.125,342.7031 Q316.3594,342.9531 316.3594,343.5625 L316.3594,345.0156 Q316.3594,345.625 316.125,345.8906 Q315.8906,346.1563 315.5156,346.1563 Q315.1719,346.1563 314.9688,345.9531 Q314.7656,345.7656 314.6563,345.25 Q314.6094,344.8906 314.4219,344.7031 Q314.0938,344.3281 313.4844,344.1094 Q312.875,343.8906 312.25,343.8906 Q311.4844,343.8906 310.8438,344.2188 Q310.2188,344.5469 309.7188,345.2969 Q309.2344,346.0469 309.2344,347.0781 L309.2344,348.1719 Q309.2344,349.4063 310.125,350.2344 Q311.0156,351.0469 312.6094,351.0469 Q313.5469,351.0469 314.2031,350.7969 Q314.5938,350.6406 315.0156,350.2031 Q315.2813,349.9375 315.4219,349.8594 Q315.5781,349.7813 315.7813,349.7813 Q316.1094,349.7813 316.3594,350.0469 Q316.625,350.2969 316.625,350.6406 Q316.625,350.9844 316.2813,351.3906 Q315.7813,351.9688 314.9844,352.2969 Q313.9063,352.75 312.6094,352.75 Q311.0938,352.75 309.8906,352.125 Q308.9063,351.625 308.2188,350.5625 Q307.5313,349.4844 307.5313,348.2031 L307.5313,347.0469 Q307.5313,345.7188 308.1406,344.5781 Q308.7656,343.4219 309.8594,342.8125 Q310.9531,342.1875 312.1875,342.1875 Q312.9219,342.1875 313.5625,342.3594 Q314.2188,342.5156 314.7656,342.875 Z " fill="#000000"/><text fill="#000000" font-family="sans-serif" font-size="14" lengthAdjust="spacing" textLength="27" x="326" y="352.7285">Line</text><line style="stroke:#181818;stroke-width:0.5;" x1="298" x2="355" y1="363" y2="363"/><line style="stroke:#181818;stroke-width:0.5;" x1="298" x2="355" y1="371" y2="371"/></g><!--MD5=[03d29eaf5bcb61339e5b2eded732b1dd]
link App to XmlService--><g id="link_App_XmlService"><path codeLine="10" d="M163.9804,62.7288 C163.9804,62.7288 128.4,92.66 112.34,106.16 " fill="none" id="App-XmlService" style="stroke:#181818;stroke-width:1.0;"/><polygon fill="#181818" points="102.22,114.68,111.681,111.9433,106.0448,111.4597,106.5284,105.8235,102.22,114.68" style="stroke:#181818;stroke-width:1.0;"/><line style="stroke:#181818;stroke-width:1.0;" x1="106.0448" x2="112.17" y1="111.4597" y2="106.31"/><polygon fill="#181818" points="173.16,55,165.9939,55.8045,163.9804,62.7288,171.1465,61.9243,173.16,55" style="stroke:#181818;stroke-width:1.0;"/></g><!--MD5=[ae8c38738dec679ea55e6bfff3ad91c0]
reverse link XmlService to LocalXmlService--><g id="link_XmlService_LocalXmlService"><path codeLine="11" d="M74.5,168.13 C74.5,185.15 74.5,206.6 74.5,222.68 " fill="none" id="XmlService-backto-LocalXmlService" style="stroke:#181818;stroke-width:1.0;"/><polygon fill="#181818" points="74.5,163,70.5,172,74.5,168,78.5,172,74.5,163" style="stroke:#181818;stroke-width:1.0;"/></g><!--MD5=[7663a15ffb04c7e1d9e9a71fc1cc15b1]
link App to Mapper--><g id="link_App_Mapper"><path codeLine="12" d="M200.5,67 C200.5,67 200.5,90.68 200.5,101.36 " fill="none" id="App-Mapper" style="stroke:#181818;stroke-width:1.0;"/><polygon fill="#181818" points="200.5,114.68,204.5,105.68,200.5,109.68,196.5,105.68,200.5,114.68" style="stroke:#181818;stroke-width:1.0;"/><line style="stroke:#181818;stroke-width:1.0;" x1="200.5" x2="200.5" y1="109.68" y2="101.68"/><polygon fill="#181818" points="200.5,55,196.5,61,200.5,67,204.5,61,200.5,55" style="stroke:#181818;stroke-width:1.0;"/></g><!--MD5=[972598b0dddcf4e3733ccd24214dee46]
link App to Document--><g id="link_App_Document"><path codeLine="13" d="M236.2787,62.8355 C236.2787,62.8355 270.66,92.47 286.16,105.82 " fill="none" id="App-Document" style="stroke:#181818;stroke-width:1.0;"/><polygon fill="#181818" points="296.44,114.68,292.2353,105.7738,292.653,111.4152,287.0116,111.8329,296.44,114.68" style="stroke:#181818;stroke-width:1.0;"/><line style="stroke:#181818;stroke-width:1.0;" x1="292.653" x2="286.59" y1="111.4152" y2="106.195"/><polygon fill="#181818" points="227.19,55,229.1225,61.9473,236.2787,62.8355,234.3462,55.8882,227.19,55" style="stroke:#181818;stroke-width:1.0;"/></g><!--MD5=[cc0a4cc495c49447e76924bd70e0c990]
link Document to Header--><g id="link_Document_Header"><path codeLine="14" d="M306.3345,173.6933 C306.3345,173.6933 293.32,199.25 287.44,210.78 " fill="none" id="Document-Header" style="stroke:#181818;stroke-width:1.0;"/><polygon fill="#181818" points="281.38,222.68,289.0286,216.4752,283.649,218.2245,281.8997,212.8449,281.38,222.68" style="stroke:#181818;stroke-width:1.0;"/><line style="stroke:#181818;stroke-width:1.0;" x1="283.649" x2="287.285" y1="218.2245" y2="211.095"/><polygon fill="#181818" points="311.78,163,305.4928,166.5315,306.3345,173.6933,312.6217,170.1618,311.78,163" style="stroke:#181818;stroke-width:1.0;"/></g><!--MD5=[954cc4f51fd722a0f976e56992401f9c]
link Document to Section--><g id="link_Document_Section"><path codeLine="15" d="M342.4381,173.4391 C342.4381,173.4391 357.05,199.28 363.71,211.03 " fill="none" id="Document-Section" style="stroke:#181818;stroke-width:1.0;"/><polygon fill="#181818" points="370.3,222.68,369.3358,212.8785,367.8317,218.3317,362.3785,216.8277,370.3,222.68" style="stroke:#181818;stroke-width:1.0;"/><line style="stroke:#181818;stroke-width:1.0;" x1="367.8317" x2="363.895" y1="218.3317" y2="211.365"/><polygon fill="#181818" points="336.52,163,335.9994,170.1923,342.4381,173.4391,342.9588,166.2469,336.52,163" style="stroke:#181818;stroke-width:1.0;"/></g><!--MD5=[9ac2d85e7656930a440418713d8d4b73]
link Header to Line--><g id="link_Header_Line"><path codeLine="17" d="M281.87,271 C290.55,287.14 302.2,308.82 311.43,325.97 " fill="none" id="Header-to-Line" style="stroke:#181818;stroke-width:1.0;stroke-dasharray:7.0,7.0;"/><polygon fill="#181818" points="313.96,330.68,313.2359,320.8578,311.5989,326.2726,306.1841,324.6356,313.96,330.68" style="stroke:#181818;stroke-width:1.0;"/></g><!--MD5=[8c33d8169eda103f8379831c70a4b277]
link Section to Line--><g id="link_Section_Line"><path codeLine="18" d="M371.13,271 C362.45,287.14 350.8,308.82 341.57,325.97 " fill="none" id="Section-to-Line" style="stroke:#181818;stroke-width:1.0;stroke-dasharray:7.0,7.0;"/><polygon fill="#181818" points="339.04,330.68,346.8159,324.6356,341.4011,326.2726,339.7641,320.8578,339.04,330.68" style="stroke:#181818;stroke-width:1.0;"/></g><!--MD5=[a01680c7face168957fd2aaa179c328d]
@startuml
class App
interface XmlService
class LocalXmlService
class Mapper
class Document
class Header
class Section
class Line

App *- -> XmlService
XmlService <- - LocalXmlService
App *- -> Mapper
App *- -> Document
Document *- -> Header
Document *- -> Section

Header ..> Line
Section ..> Line
@enduml

PlantUML version 1.2022.7(Mon Aug 22 19:01:30 CEST 2022)
(GPL source distribution)
Java Runtime: OpenJDK Runtime Environment
JVM: OpenJDK 64-Bit Server VM
Default Encoding: UTF-8
Language: es
Country: ES
--></g></svg>