<?xml version="1.0" encoding="UTF-8" standalone="no"?><svg xmlns="http://www.w3.org/2000/svg" xmlns:xlink="http://www.w3.org/1999/xlink" contentStyleType="text/css" height="494px" preserveAspectRatio="none" style="width:388px;height:494px;background:#FFFFFF;" version="1.1" viewBox="0 0 388 494" width="388px" zoomAndPan="magnify"><defs/><g><!--MD5=[335f4d9be48430461c68bf6d6fdba145]
class App--><g id="elem_App"><rect codeLine="1" fill="#F1F1F1" height="48" id="App" rx="2.5" ry="2.5" style="stroke:#181818;stroke-width:0.5;" width="57" x="117" y="7"/><ellipse cx="132" cy="23" fill="#ADD1B2" rx="11" ry="11" style="stroke:#181818;stroke-width:1.0;"/><path d="M134.7656,18.875 Q134.9219,18.6563 135.1094,18.5469 Q135.2969,18.4375 135.5156,18.4375 Q135.8906,18.4375 136.125,18.7031 Q136.3594,18.9531 136.3594,19.5625 L136.3594,21.0156 Q136.3594,21.625 136.125,21.8906 Q135.8906,22.1563 135.5156,22.1563 Q135.1719,22.1563 134.9688,21.9531 Q134.7656,21.7656 134.6563,21.25 Q134.6094,20.8906 134.4219,20.7031 Q134.0938,20.3281 133.4844,20.1094 Q132.875,19.8906 132.25,19.8906 Q131.4844,19.8906 130.8438,20.2188 Q130.2188,20.5469 129.7188,21.2969 Q129.2344,22.0469 129.2344,23.0781 L129.2344,24.1719 Q129.2344,25.4063 130.125,26.2344 Q131.0156,27.0469 132.6094,27.0469 Q133.5469,27.0469 134.2031,26.7969 Q134.5938,26.6406 135.0156,26.2031 Q135.2813,25.9375 135.4219,25.8594 Q135.5781,25.7813 135.7813,25.7813 Q136.1094,25.7813 136.3594,26.0469 Q136.625,26.2969 136.625,26.6406 Q136.625,26.9844 136.2813,27.3906 Q135.7813,27.9688 134.9844,28.2969 Q133.9063,28.75 132.6094,28.75 Q131.0938,28.75 129.8906,28.125 Q128.9063,27.625 128.2188,26.5625 Q127.5313,25.4844 127.5313,24.2031 L127.5313,23.0469 Q127.5313,21.7188 128.1406,20.5781 Q128.7656,19.4219 129.8594,18.8125 Q130.9531,18.1875 132.1875,18.1875 Q132.9219,18.1875 133.5625,18.3594 Q134.2188,18.5156 134.7656,18.875 Z " fill="#000000"/><text fill="#000000" font-family="sans-serif" font-size="14" lengthAdjust="spacing" textLength="25" x="146" y="28.7285">App</text><line style="stroke:#181818;stroke-width:0.5;" x1="118" x2="173" y1="39" y2="39"/><line style="stroke:#181818;stroke-width:0.5;" x1="118" x2="173" y1="47" y2="47"/></g><!--MD5=[0879a4632029cf6427295a9ce0d38dc7]
class XmlService--><g id="elem_XmlService"><rect codeLine="2" fill="#F1F1F1" height="48" id="XmlService" rx="2.5" ry="2.5" style="stroke:#181818;stroke-width:0.5;" width="101" x="24" y="223"/><ellipse cx="39" cy="239" fill="#B4A7E5" rx="11" ry="11" style="stroke:#181818;stroke-width:1.0;"/><path d="M39.9531,235.6406 L39.9531,242.2969 L41.6719,242.2969 Q42.2813,242.2969 42.5469,242.5313 Q42.8125,242.7656 42.8125,243.1563 Q42.8125,243.5313 42.5469,243.7656 Q42.2813,244 41.6719,244 L36.5313,244 Q35.9219,244 35.6563,243.7656 Q35.3906,243.5313 35.3906,243.1406 Q35.3906,242.7656 35.6563,242.5313 Q35.9219,242.2969 36.5313,242.2969 L38.25,242.2969 L38.25,235.6406 L36.5313,235.6406 Q35.9219,235.6406 35.6563,235.4063 Q35.3906,235.1719 35.3906,234.7813 Q35.3906,234.4063 35.6563,234.1719 Q35.9219,233.9375 36.5313,233.9375 L41.6719,233.9375 Q42.2813,233.9375 42.5469,234.1719 Q42.8125,234.4063 42.8125,234.7813 Q42.8125,235.1719 42.5469,235.4063 Q42.2813,235.6406 41.6719,235.6406 L39.9531,235.6406 Z " fill="#000000"/><text fill="#000000" font-family="sans-serif" font-size="14" font-style="italic" lengthAdjust="spacing" textLength="69" x="53" y="244.7285">XmlService</text><line style="stroke:#181818;stroke-width:0.5;" x1="25" x2="124" y1="255" y2="255"/><line style="stroke:#181818;stroke-width:0.5;" x1="25" x2="124" y1="263" y2="263"/></g><!--MD5=[3103f3d3160944adae456d9e0b388c1f]
class LocalXmlService--><g id="elem_LocalXmlService"><rect codeLine="3" fill="#F1F1F1" height="48" id="LocalXmlService" rx="2.5" ry="2.5" style="stroke:#181818;stroke-width:0.5;" width="135" x="7" y="331"/><ellipse cx="22" cy="347" fill="#ADD1B2" rx="11" ry="11" style="stroke:#181818;stroke-width:1.0;"/><path d="M24.7656,342.875 Q24.9219,342.6563 25.1094,342.5469 Q25.2969,342.4375 25.5156,342.4375 Q25.8906,342.4375 26.125,342.7031 Q26.3594,342.9531 26.3594,343.5625 L26.3594,345.0156 Q26.3594,345.625 26.125,345.8906 Q25.8906,346.1563 25.5156,346.1563 Q25.1719,346.1563 24.9688,345.9531 Q24.7656,345.7656 24.6563,345.25 Q24.6094,344.8906 24.4219,344.7031 Q24.0938,344.3281 23.4844,344.1094 Q22.875,343.8906 22.25,343.8906 Q21.4844,343.8906 20.8438,344.2188 Q20.2188,344.5469 19.7188,345.2969 Q19.2344,346.0469 19.2344,347.0781 L19.2344,348.1719 Q19.2344,349.4063 20.125,350.2344 Q21.0156,351.0469 22.6094,351.0469 Q23.5469,351.0469 24.2031,350.7969 Q24.5938,350.6406 25.0156,350.2031 Q25.2813,349.9375 25.4219,349.8594 Q25.5781,349.7813 25.7813,349.7813 Q26.1094,349.7813 26.3594,350.0469 Q26.625,350.2969 26.625,350.6406 Q26.625,350.9844 26.2813,351.3906 Q25.7813,351.9688 24.9844,352.2969 Q23.9063,352.75 22.6094,352.75 Q21.0938,352.75 19.8906,352.125 Q18.9063,351.625 18.2188,350.5625 Q17.5313,349.4844 17.5313,348.2031 L17.5313,347.0469 Q17.5313,345.7188 18.1406,344.5781 Q18.7656,343.4219 19.8594,342.8125 Q20.9531,342.1875 22.1875,342.1875 Q22.9219,342.1875 23.5625,342.3594 Q24.2188,342.5156 24.7656,342.875 Z " fill="#000000"/><text fill="#000000" font-family="sans-serif" font-size="14" lengthAdjust="spacing" textLength="103" x="36" y="352.7285">LocalXmlService</text><line style="stroke:#181818;stroke-width:0.5;" x1="8" x2="141" y1="363" y2="363"/><line style="stroke:#181818;stroke-width:0.5;" x1="8" x2="141" y1="371" y2="371"/></g><!--MD5=[085457430d2356209d15d1291460c965]
class Mapper--><g id="elem_Mapper"><rect codeLine="4" fill="#F1F1F1" height="48" id="Mapper" rx="2.5" ry="2.5" style="stroke:#181818;stroke-width:0.5;" width="80" x="105.5" y="115"/><ellipse cx="120.5" cy="131" fill="#ADD1B2" rx="11" ry="11" style="stroke:#181818;stroke-width:1.0;"/><path d="M123.2656,126.875 Q123.4219,126.6563 123.6094,126.5469 Q123.7969,126.4375 124.0156,126.4375 Q124.3906,126.4375 124.625,126.7031 Q124.8594,126.9531 124.8594,127.5625 L124.8594,129.0156 Q124.8594,129.625 124.625,129.8906 Q124.3906,130.1563 124.0156,130.1563 Q123.6719,130.1563 123.4688,129.9531 Q123.2656,129.7656 123.1563,129.25 Q123.1094,128.8906 122.9219,128.7031 Q122.5938,128.3281 121.9844,128.1094 Q121.375,127.8906 120.75,127.8906 Q119.9844,127.8906 119.3438,128.2188 Q118.7188,128.5469 118.2188,129.2969 Q117.7344,130.0469 117.7344,131.0781 L117.7344,132.1719 Q117.7344,133.4063 118.625,134.2344 Q119.5156,135.0469 121.1094,135.0469 Q122.0469,135.0469 122.7031,134.7969 Q123.0938,134.6406 123.5156,134.2031 Q123.7813,133.9375 123.9219,133.8594 Q124.0781,133.7813 124.2813,133.7813 Q124.6094,133.7813 124.8594,134.0469 Q125.125,134.2969 125.125,134.6406 Q125.125,134.9844 124.7813,135.3906 Q124.2813,135.9688 123.4844,136.2969 Q122.4063,136.75 121.1094,136.75 Q119.5938,136.75 118.3906,136.125 Q117.4063,135.625 116.7188,134.5625 Q116.0313,133.4844 116.0313,132.2031 L116.0313,131.0469 Q116.0313,129.7188 116.6406,128.5781 Q117.2656,127.4219 118.3594,126.8125 Q119.4531,126.1875 120.6875,126.1875 Q121.4219,126.1875 122.0625,126.3594 Q122.7188,126.5156 123.2656,126.875 Z " fill="#000000"/><text fill="#000000" font-family="sans-serif" font-size="14" lengthAdjust="spacing" textLength="48" x="134.5" y="136.7285">Mapper</text><line style="stroke:#181818;stroke-width:0.5;" x1="106.5" x2="184.5" y1="147" y2="147"/><line style="stroke:#181818;stroke-width:0.5;" x1="106.5" x2="184.5" y1="155" y2="155"/></g><!--MD5=[59b530d44ae785dc18db921986a9c15c]
class Document--><g id="elem_Document"><rect codeLine="5" fill="#F1F1F1" height="48" id="Document" rx="2.5" ry="2.5" style="stroke:#181818;stroke-width:0.5;" width="96" x="184.5" y="223"/><ellipse cx="199.5" cy="239" fill="#ADD1B2" rx="11" ry="11" style="stroke:#181818;stroke-width:1.0;"/><path d="M202.2656,234.875 Q202.4219,234.6563 202.6094,234.5469 Q202.7969,234.4375 203.0156,234.4375 Q203.3906,234.4375 203.625,234.7031 Q203.8594,234.9531 203.8594,235.5625 L203.8594,237.0156 Q203.8594,237.625 203.625,237.8906 Q203.3906,238.1563 203.0156,238.1563 Q202.6719,238.1563 202.4688,237.9531 Q202.2656,237.7656 202.1563,237.25 Q202.1094,236.8906 201.9219,236.7031 Q201.5938,236.3281 200.9844,236.1094 Q200.375,235.8906 199.75,235.8906 Q198.9844,235.8906 198.3438,236.2188 Q197.7188,236.5469 197.2188,237.2969 Q196.7344,238.0469 196.7344,239.0781 L196.7344,240.1719 Q196.7344,241.4063 197.625,242.2344 Q198.5156,243.0469 200.1094,243.0469 Q201.0469,243.0469 201.7031,242.7969 Q202.0938,242.6406 202.5156,242.2031 Q202.7813,241.9375 202.9219,241.8594 Q203.0781,241.7813 203.2813,241.7813 Q203.6094,241.7813 203.8594,242.0469 Q204.125,242.2969 204.125,242.6406 Q204.125,242.9844 203.7813,243.3906 Q203.2813,243.9688 202.4844,244.2969 Q201.4063,244.75 200.1094,244.75 Q198.5938,244.75 197.3906,244.125 Q196.4063,243.625 195.7188,242.5625 Q195.0313,241.4844 195.0313,240.2031 L195.0313,239.0469 Q195.0313,237.7188 195.6406,236.5781 Q196.2656,235.4219 197.3594,234.8125 Q198.4531,234.1875 199.6875,234.1875 Q200.4219,234.1875 201.0625,234.3594 Q201.7188,234.5156 202.2656,234.875 Z " fill="#000000"/><text fill="#000000" font-family="sans-serif" font-size="14" lengthAdjust="spacing" textLength="64" x="213.5" y="244.7285">Document</text><line style="stroke:#181818;stroke-width:0.5;" x1="185.5" x2="279.5" y1="255" y2="255"/><line style="stroke:#181818;stroke-width:0.5;" x1="185.5" x2="279.5" y1="263" y2="263"/></g><!--MD5=[d10018d7374cb536a2ec2f77e731452b]
class Header--><g id="elem_Header"><rect codeLine="6" fill="#F1F1F1" height="48" id="Header" rx="2.5" ry="2.5" style="stroke:#181818;stroke-width:0.5;" width="78" x="188.5" y="331"/><ellipse cx="203.5" cy="347" fill="#ADD1B2" rx="11" ry="11" style="stroke:#181818;stroke-width:1.0;"/><path d="M206.2656,342.875 Q206.4219,342.6563 206.6094,342.5469 Q206.7969,342.4375 207.0156,342.4375 Q207.3906,342.4375 207.625,342.7031 Q207.8594,342.9531 207.8594,343.5625 L207.8594,345.0156 Q207.8594,345.625 207.625,345.8906 Q207.3906,346.1563 207.0156,346.1563 Q206.6719,346.1563 206.4688,345.9531 Q206.2656,345.7656 206.1563,345.25 Q206.1094,344.8906 205.9219,344.7031 Q205.5938,344.3281 204.9844,344.1094 Q204.375,343.8906 203.75,343.8906 Q202.9844,343.8906 202.3438,344.2188 Q201.7188,344.5469 201.2188,345.2969 Q200.7344,346.0469 200.7344,347.0781 L200.7344,348.1719 Q200.7344,349.4063 201.625,350.2344 Q202.5156,351.0469 204.1094,351.0469 Q205.0469,351.0469 205.7031,350.7969 Q206.0938,350.6406 206.5156,350.2031 Q206.7813,349.9375 206.9219,349.8594 Q207.0781,349.7813 207.2813,349.7813 Q207.6094,349.7813 207.8594,350.0469 Q208.125,350.2969 208.125,350.6406 Q208.125,350.9844 207.7813,351.3906 Q207.2813,351.9688 206.4844,352.2969 Q205.4063,352.75 204.1094,352.75 Q202.5938,352.75 201.3906,352.125 Q200.4063,351.625 199.7188,350.5625 Q199.0313,349.4844 199.0313,348.2031 L199.0313,347.0469 Q199.0313,345.7188 199.6406,344.5781 Q200.2656,343.4219 201.3594,342.8125 Q202.4531,342.1875 203.6875,342.1875 Q204.4219,342.1875 205.0625,342.3594 Q205.7188,342.5156 206.2656,342.875 Z " fill="#000000"/><text fill="#000000" font-family="sans-serif" font-size="14" lengthAdjust="spacing" textLength="46" x="217.5" y="352.7285">Header</text><line style="stroke:#181818;stroke-width:0.5;" x1="189.5" x2="265.5" y1="363" y2="363"/><line style="stroke:#181818;stroke-width:0.5;" x1="189.5" x2="265.5" y1="371" y2="371"/></g><!--MD5=[09a53695e98d4f26e7a054522080af08]
class Section--><g id="elem_Section"><rect codeLine="7" fill="#F1F1F1" height="48" id="Section" rx="2.5" ry="2.5" style="stroke:#181818;stroke-width:0.5;" width="79" x="302" y="331"/><ellipse cx="317" cy="347" fill="#ADD1B2" rx="11" ry="11" style="stroke:#181818;stroke-width:1.0;"/><path d="M319.7656,342.875 Q319.9219,342.6563 320.1094,342.5469 Q320.2969,342.4375 320.5156,342.4375 Q320.8906,342.4375 321.125,342.7031 Q321.3594,342.9531 321.3594,343.5625 L321.3594,345.0156 Q321.3594,345.625 321.125,345.8906 Q320.8906,346.1563 320.5156,346.1563 Q320.1719,346.1563 319.9688,345.9531 Q319.7656,345.7656 319.6563,345.25 Q319.6094,344.8906 319.4219,344.7031 Q319.0938,344.3281 318.4844,344.1094 Q317.875,343.8906 317.25,343.8906 Q316.4844,343.8906 315.8438,344.2188 Q315.2188,344.5469 314.7188,345.2969 Q314.2344,346.0469 314.2344,347.0781 L314.2344,348.1719 Q314.2344,349.4063 315.125,350.2344 Q316.0156,351.0469 317.6094,351.0469 Q318.5469,351.0469 319.2031,350.7969 Q319.5938,350.6406 320.0156,350.2031 Q320.2813,349.9375 320.4219,349.8594 Q320.5781,349.7813 320.7813,349.7813 Q321.1094,349.7813 321.3594,350.0469 Q321.625,350.2969 321.625,350.6406 Q321.625,350.9844 321.2813,351.3906 Q320.7813,351.9688 319.9844,352.2969 Q318.9063,352.75 317.6094,352.75 Q316.0938,352.75 314.8906,352.125 Q313.9063,351.625 313.2188,350.5625 Q312.5313,349.4844 312.5313,348.2031 L312.5313,347.0469 Q312.5313,345.7188 313.1406,344.5781 Q313.7656,343.4219 314.8594,342.8125 Q315.9531,342.1875 317.1875,342.1875 Q317.9219,342.1875 318.5625,342.3594 Q319.2188,342.5156 319.7656,342.875 Z " fill="#000000"/><text fill="#000000" font-family="sans-serif" font-size="14" lengthAdjust="spacing" textLength="47" x="331" y="352.7285">Section</text><line style="stroke:#181818;stroke-width:0.5;" x1="303" x2="380" y1="363" y2="363"/><line style="stroke:#181818;stroke-width:0.5;" x1="303" x2="380" y1="371" y2="371"/></g><!--MD5=[736dfa021baaf4f381c9890dd397bfe9]
class Line--><g id="elem_Line"><rect codeLine="8" fill="#F1F1F1" height="48" id="Line" rx="2.5" ry="2.5" style="stroke:#181818;stroke-width:0.5;" width="59" x="255" y="439"/><ellipse cx="270" cy="455" fill="#ADD1B2" rx="11" ry="11" style="stroke:#181818;stroke-width:1.0;"/><path d="M272.7656,450.875 Q272.9219,450.6563 273.1094,450.5469 Q273.2969,450.4375 273.5156,450.4375 Q273.8906,450.4375 274.125,450.7031 Q274.3594,450.9531 274.3594,451.5625 L274.3594,453.0156 Q274.3594,453.625 274.125,453.8906 Q273.8906,454.1563 273.5156,454.1563 Q273.1719,454.1563 272.9688,453.9531 Q272.7656,453.7656 272.6563,453.25 Q272.6094,452.8906 272.4219,452.7031 Q272.0938,452.3281 271.4844,452.1094 Q270.875,451.8906 270.25,451.8906 Q269.4844,451.8906 268.8438,452.2188 Q268.2188,452.5469 267.7188,453.2969 Q267.2344,454.0469 267.2344,455.0781 L267.2344,456.1719 Q267.2344,457.4063 268.125,458.2344 Q269.0156,459.0469 270.6094,459.0469 Q271.5469,459.0469 272.2031,458.7969 Q272.5938,458.6406 273.0156,458.2031 Q273.2813,457.9375 273.4219,457.8594 Q273.5781,457.7813 273.7813,457.7813 Q274.1094,457.7813 274.3594,458.0469 Q274.625,458.2969 274.625,458.6406 Q274.625,458.9844 274.2813,459.3906 Q273.7813,459.9688 272.9844,460.2969 Q271.9063,460.75 270.6094,460.75 Q269.0938,460.75 267.8906,460.125 Q266.9063,459.625 266.2188,458.5625 Q265.5313,457.4844 265.5313,456.2031 L265.5313,455.0469 Q265.5313,453.7188 266.1406,452.5781 Q266.7656,451.4219 267.8594,450.8125 Q268.9531,450.1875 270.1875,450.1875 Q270.9219,450.1875 271.5625,450.3594 Q272.2188,450.5156 272.7656,450.875 Z " fill="#000000"/><text fill="#000000" font-family="sans-serif" font-size="14" lengthAdjust="spacing" textLength="27" x="284" y="460.7285">Line</text><line style="stroke:#181818;stroke-width:0.5;" x1="256" x2="313" y1="471" y2="471"/><line style="stroke:#181818;stroke-width:0.5;" x1="256" x2="313" y1="479" y2="479"/></g><!--MD5=[03d29eaf5bcb61339e5b2eded732b1dd]
link App to XmlService--><g id="link_App_XmlService"><path codeLine="10" d="M124.4,55.18 C111.41,70.88 95.74,92.74 87.5,115 C75.01,148.76 72.97,190.56 73.24,217.74 " fill="none" id="App-to-XmlService" style="stroke:#181818;stroke-width:1.0;"/><polygon fill="#181818" points="73.33,222.97,77.1751,213.9028,73.2443,217.9707,69.1763,214.0399,73.33,222.97" style="stroke:#181818;stroke-width:1.0;"/></g><!--MD5=[ae8c38738dec679ea55e6bfff3ad91c0]
reverse link XmlService to LocalXmlService--><g id="link_XmlService_LocalXmlService"><path codeLine="11" d="M74.5,276.13 C74.5,293.15 74.5,314.6 74.5,330.68 " fill="none" id="XmlService-backto-LocalXmlService" style="stroke:#181818;stroke-width:1.0;"/><polygon fill="#181818" points="74.5,271,70.5,280,74.5,276,78.5,280,74.5,271" style="stroke:#181818;stroke-width:1.0;"/></g><!--MD5=[7663a15ffb04c7e1d9e9a71fc1cc15b1]
link App to Mapper--><g id="link_App_Mapper"><path codeLine="12" d="M145.5,67 C145.5,67 145.5,90.68 145.5,101.36 " fill="none" id="App-Mapper" style="stroke:#181818;stroke-width:1.0;"/><polygon fill="#181818" points="145.5,114.68,149.5,105.68,145.5,109.68,141.5,105.68,145.5,114.68" style="stroke:#181818;stroke-width:1.0;"/><line style="stroke:#181818;stroke-width:1.0;" x1="145.5" x2="145.5" y1="109.68" y2="101.68"/><polygon fill="#181818" points="145.5,55,141.5,61,145.5,67,149.5,61,145.5,55" style="stroke:#181818;stroke-width:1.0;"/></g><!--MD5=[972598b0dddcf4e3733ccd24214dee46]
link App to Document--><g id="link_App_Document"><path codeLine="13" d="M172.2843,64.8266 C172.2843,64.8266 194.89,97.65 202.5,115 C215.91,145.57 223.7,182.88 227.97,209.86 " fill="none" id="App-Document" style="stroke:#181818;stroke-width:1.0;"/><polygon fill="#181818" points="229.89,222.93,232.5328,213.4424,229.1598,217.9836,224.6186,214.6106,229.89,222.93" style="stroke:#181818;stroke-width:1.0;"/><line style="stroke:#181818;stroke-width:1.0;" x1="229.1598" x2="227.995" y1="217.9836" y2="210.065"/><polygon fill="#181818" points="165.04,55.26,165.4732,62.4581,172.2843,64.8266,171.851,57.6286,165.04,55.26" style="stroke:#181818;stroke-width:1.0;"/></g><!--MD5=[cc0a4cc495c49447e76924bd70e0c990]
link Document to Header--><g id="link_Document_Header"><path codeLine="14" d="M230.853,282.9866 C230.853,282.9866 229.73,306.68 229.23,317.36 " fill="none" id="Document-Header" style="stroke:#181818;stroke-width:1.0;"/><polygon fill="#181818" points="228.6,330.68,233.0208,321.8791,228.8363,325.6856,225.0297,321.501,228.6,330.68" style="stroke:#181818;stroke-width:1.0;"/><line style="stroke:#181818;stroke-width:1.0;" x1="228.8363" x2="229.215" y1="325.6856" y2="317.695"/><polygon fill="#181818" points="231.42,271,227.141,276.8043,230.853,282.9866,235.132,277.1823,231.42,271" style="stroke:#181818;stroke-width:1.0;"/></g><!--MD5=[954cc4f51fd722a0f976e56992401f9c]
link Document to Section--><g id="link_Document_Section"><path codeLine="15" d="M264.7596,279.3591 C264.7596,279.3591 294.6,308.39 308.11,321.52 " fill="none" id="Document-Section" style="stroke:#181818;stroke-width:1.0;"/><polygon fill="#181818" points="317.52,330.68,313.8492,321.5408,313.9327,327.197,308.2764,327.2805,317.52,330.68" style="stroke:#181818;stroke-width:1.0;"/><line style="stroke:#181818;stroke-width:1.0;" x1="313.9327" x2="308.2" y1="327.197" y2="321.615"/><polygon fill="#181818" points="256.15,271,257.6684,278.0494,264.7596,279.3591,263.2412,272.3097,256.15,271" style="stroke:#181818;stroke-width:1.0;"/></g><!--MD5=[e04e499b4eac2a6e61453bbae82598d2]
link Mapper to Document--><g id="link_Mapper_Document"><path codeLine="17" d="M164.38,163 C177.74,179.28 195.72,201.19 209.85,218.41 " fill="none" id="Mapper-to-Document" style="stroke:#181818;stroke-width:1.0;stroke-dasharray:7.0,7.0;"/><polygon fill="#181818" points="213.36,222.68,210.751,213.183,210.1915,218.8121,204.5624,218.2526,213.36,222.68" style="stroke:#181818;stroke-width:1.0;"/></g><!--MD5=[b4769ece4d67ec4d1e3fb4f28ad43c04]
link Mapper to XmlService--><g id="link_Mapper_XmlService"><path codeLine="18" d="M130.09,163 C119.19,179.28 104.52,201.19 92.98,218.41 " fill="none" id="Mapper-to-XmlService" style="stroke:#181818;stroke-width:1.0;stroke-dasharray:7.0,7.0;"/><polygon fill="#181818" points="90.12,222.68,98.453,217.4301,92.9034,218.5263,91.8072,212.9767,90.12,222.68" style="stroke:#181818;stroke-width:1.0;"/></g><!--MD5=[9ac2d85e7656930a440418713d8d4b73]
link Header to Line--><g id="link_Header_Line"><path codeLine="20" d="M239.87,379 C248.55,395.14 260.2,416.82 269.43,433.97 " fill="none" id="Header-to-Line" style="stroke:#181818;stroke-width:1.0;stroke-dasharray:7.0,7.0;"/><polygon fill="#181818" points="271.96,438.68,271.2359,428.8578,269.5989,434.2726,264.1841,432.6356,271.96,438.68" style="stroke:#181818;stroke-width:1.0;"/></g><!--MD5=[8c33d8169eda103f8379831c70a4b277]
link Section to Line--><g id="link_Section_Line"><path codeLine="21" d="M329.13,379 C320.45,395.14 308.8,416.82 299.57,433.97 " fill="none" id="Section-to-Line" style="stroke:#181818;stroke-width:1.0;stroke-dasharray:7.0,7.0;"/><polygon fill="#181818" points="297.04,438.68,304.8159,432.6356,299.4011,434.2726,297.7641,428.8578,297.04,438.68" style="stroke:#181818;stroke-width:1.0;"/></g><!--MD5=[c715eb85bab95f68402c973563da57bf]
@startuml
class App
interface XmlService
class LocalXmlService
class Mapper
class Document
class Header
class Section
class Line

App - -> XmlService
XmlService <- - LocalXmlService
App *- -> Mapper
App *- -> Document
Document *- -> Header
Document *- -> Section

Mapper ..> Document
Mapper ..> XmlService

Header ..> Line
Section ..> Line
@enduml

PlantUML version 1.2022.7(Mon Aug 22 19:01:30 CEST 2022)
(GPL source distribution)
Java Runtime: OpenJDK Runtime Environment
JVM: OpenJDK 64-Bit Server VM
Default Encoding: UTF-8
Language: es
Country: ES
--></g></svg>